<svg xmlns="http://www.w3.org/2000/svg" viewBox="0 0 572.45 662.6">
  <path fill="#222" stroke="#00d8ff" stroke-width="12.9" d="M286.225 653.8l279.293-161.25v-322.5L286.225 8.8 6.932 170.05v322.5z" />
  <g transform="translate(43.186 28.442) scale(.8652)">
    <circle cx="280.901" cy="349.576" r="50.167" fill="#00d8ff"/>
    <path fill="none" stroke="#00d8ff" stroke-width="24" stroke-miterlimit="10" d="M280.9 247.576c67.357 0 129.93 9.665 177.108 25.907 56.844 19.57 91.794 49.233 91.794 76.093 0 27.99-37.04 59.503-98.083 79.728-46.16 15.29-106.88 23.272-170.82 23.272-65.56 0-127.63-7.492-174.29-23.44C47.56 408.952 12 377.03 12 349.576c0-26.643 33.37-56.077 89.415-75.617 47.355-16.51 111.472-26.39 179.485-26.39z"/>
    <path fill="none" stroke="#00d8ff" stroke-width="24" stroke-miterlimit="10" d="M192.108 298.87c33.65-58.348 73.28-107.724 110.92-140.48 45.35-39.466 88.507-54.923 111.775-41.505 24.248 13.983 33.042 61.814 20.067 124.796-9.81 47.62-33.234 104.22-65.176 159.61-32.75 56.79-70.25 106.82-107.377 139.27-46.98 41.07-92.4 55.93-116.185 42.218-23.08-13.31-31.906-56.92-20.834-115.233 9.355-49.27 32.832-109.746 66.81-168.665z"/>
    <path fill="none" stroke="#00d8ff" stroke-width="24" stroke-miterlimit="10" d="M192.193 401.43c-33.746-58.292-56.73-117.287-66.312-166.255-11.54-59-3.38-104.11 19.87-117.566 24.23-14.03 70.06 2.24 118.14 44.94 36.36 32.28 73.69 80.83 105.73 136.17 32.844 56.73 57.46 114.21 67.036 162.58 12.117 61.21 2.31 107.98-21.453 121.74-23.056 13.35-65.25-.79-110.24-39.5-38.012-32.71-78.68-83.25-112.76-142.12z"/>
  </g>
</svg>
